<?xml version="1.0" encoding="UTF-8" standalone="no"?>
<!-- Created with Inkscape (http://www.inkscape.org/) -->
<svg height="16" viewBox="0 0 16 16" width="16" xmlns="http://www.w3.org/2000/svg" xmlns:inkscape="http://www.inkscape.org/namespaces/inkscape" xmlns:sodipodi="http://sodipodi.sourceforge.net/DTD/sodipodi-0.dtd" xmlns:svg="http://www.w3.org/2000/svg" inkscape:version="1.4.3 (0d15f75042, 2025-12-25)" sodipodi:docname="io.github.v81d.Autopilot-symbolic.svg">
    <sodipodi:namedview pagecolor="#ffffff" bordercolor="#000000" borderopacity="0.25" inkscape:showpageshadow="2" inkscape:pageopacity="0.0" inkscape:pagecheckerboard="0" inkscape:deskcolor="#d1d1d1" inkscape:document-units="px" showguides="true" inkscape:zoom="22.627417" inkscape:cx="10.451922" inkscape:cy="15.202796" inkscape:window-width="1876" inkscape:window-height="999" inkscape:window-x="0" inkscape:window-y="0" inkscape:window-maximized="0" inkscape:current-layer="layer1"/>
    <g inkscape:label="Symbolic Icon" inkscape:groupmode="layer">
        <path d="m 2.6660156 0 c -1.4773334 0 -2.6660156 1.1886822 -2.6660156 2.6660156 v 10.6679684 c 0 1.477334 1.1886822 2.666016 2.6660156 2.666016 h 10.6679684 c 1.477334 0 2.666016 -1.188682 2.666016 -2.666016 v -10.6679684 c 0 -1.4773334 -1.188682 -2.6660156 -2.666016 -2.6660156 z m -0.6660156 2 h 12 v 12 h -12 z" inkscape:label="button"/>
        <path d="m 8 8 v 0.2666671 s 0 0.2666668 -0.267205 0.2666668 c -0.2672051 0 -0.2672051 -0.2666668 -0.2672051 -0.2666668 v -2.933333 c 0 -0.2958336 -0.2379792 -0.5333333 -0.5344099 -0.5333333 c -0.296431 0 -0.5344102 0.2374997 -0.5344102 0.5333333 v 5.0666679 c 0 0.266666 -0.2672049 0.266666 -0.2672049 0.266666 l -0.9581808 -0.9104176 c -0.1002021 -0.104168 -0.2379793 -0.162501 -0.3841073 -0.162501 c -0.5782482 0.045838 -0.6116489 0.6770856 -0.3715817 0.9166686 l 1.6032303 1.599999 c 0.3778444 0.422916 0.9393923 0.687501 1.4466645 0.689584 h 3.2064611 c 1.603228 0.000001 1.603228 -1.600001 1.603228 -1.600001 v -3.2291666 c 0 -0.2958333 -0.237978 -0.5333334 -0.534409 -0.5333334 c -0.29643 0 -0.534409 0.2375001 -0.534409 0.5333334 v 0.2958337 s 0 0.2666668 -0.267205 0.2666668 s -0.267205 -0.2666668 -0.267205 -0.2666668 v -0.2666671 c 0 -0.2958333 -0.237979 -0.533333 -0.534411 -0.533333 c -0.2964306 0 -0.5344095 0.2374997 -0.5344095 0.533333 v 0.2666671 s 0 0.2666668 -0.2672051 0.2666668 s -0.2672051 -0.2666668 -0.2672051 -0.2666668 v -0.2666671 c 0 -0.2958333 -0.242154 -0.5291665 -0.53441 -0.533333 c -0.3131314 -0.00625 -0.5344103 0.2374997 -0.5344103 0.533333 z m 0 0" fill="#222222" stroke-dasharray="0.998992 2.99698" stroke-width="0.998992" inkscape:label="cursor"/>
        <path d="m -2.4492188 -8.9316406 a 0.5 0.5 0 0 0 -0.3652343 0.6054687 l 0.023437 0.09375 l 0.017578 0.085937 l 0.015625 0.085937 l 0.00977 0.085937 l 0.00781 0.085937 l 0.00391 0.085937 l 0.00195 0.083984 l -0.00391 0.085937 l -0.00586 0.083984 l -0.00391 0.041016 a 0.5 0.5 0 0 0 0.4453125 0.5507813 a 0.5 0.5 0 0 0 0.5507813 -0.4453125 l 0.00391 -0.050781 l 0.00195 -0.019531 l 0.00781 -0.1035157 v -0.019531 l 0.00391 -0.1035156 v -0.0195286 l -0.00195 -0.1035156 v -0.019531 l -0.00586 -0.1054687 l -0.00195 -0.019531 l -0.00781 -0.1035156 l -0.00195 -0.019531 l -0.013672 -0.1054687 l -0.00195 -0.019531 l -0.017578 -0.1035156 l -0.00391 -0.019531 l -0.021484 -0.1054688 l -0.00391 -0.019531 l -0.027344 -0.1035157 a 0.5 0.5 0 0 0 -0.6054688 -0.3652343 z m -5.0546874 0.03125 a 0.5 0.5 0 0 0 -0.6054688 0.3652343 l -0.017578 0.072266 l -0.00586 0.019531 l -0.021484 0.1054688 l -0.00391 0.019531 l -0.015625 0.1035156 l -0.00391 0.019531 l -0.013672 0.1054687 l -0.00195 0.019531 l -0.00781 0.1035156 l -0.00195 0.019531 l -0.00586 0.1054687 v 0.019531 l -0.00195 0.1035156 l 0.00195 0.019531 l 0.00195 0.1035156 l 0.00195 0.019531 l 0.00586 0.1035157 l 0.00195 0.019531 l 0.00781 0.082031 a 0.5 0.5 0 0 0 0.5507812 0.4453125 a 0.5 0.5 0 0 0 0.4453125 -0.5488282 l -0.00781 -0.074219 l -0.00586 -0.083984 l -0.00195 -0.085937 v -0.083984 l 0.00391 -0.085937 l 0.00781 -0.085937 l 0.00977 -0.085937 l 0.015625 -0.085937 l 0.017578 -0.085937 l 0.015625 -0.0625 a 0.5 0.5 0 0 0 -0.3652339 -0.6054699 z m 0.6777343 2.7128906 a 0.5 0.5 0 0 0 -0.3398437 0.1738281 a 0.5 0.5 0 0 0 0.052734 0.7050782 l 0.074219 0.0625 l 0.015625 0.013672 l 0.083984 0.066406 l 0.015625 0.011719 l 0.085937 0.0625 l 0.015625 0.011719 l 0.089844 0.058594 l 0.017578 0.011719 l 0.089844 0.056641 l 0.017578 0.00977 l 0.091797 0.050781 l 0.017578 0.00977 l 0.09375 0.048828 l 0.017578 0.00781 l 0.095703 0.044922 l 0.017578 0.00781 l 0.095703 0.041016 l 0.017578 0.00586 l 0.048828 0.019531 a 0.5 0.5 0 0 0 0.6445327 -0.2929743 a 0.5 0.5 0 0 0 -0.2929687 -0.6445312 l -0.039063 -0.013672 l -0.078125 -0.033203 l -0.078125 -0.037109 l -0.078125 -0.039063 l -0.074219 -0.042969 l -0.076172 -0.044922 l -0.072266 -0.050781 l -0.070312 -0.050781 l -0.068359 -0.054687 l -0.066406 -0.056641 a 0.5 0.5 0 0 0 -0.3652343 -0.1191408 z m 3.3535156 0.109375 l -0.011719 0.00977 l -0.064453 0.056641 l -0.070312 0.054687 l -0.070312 0.050781 l -0.072266 0.050781 l -0.074219 0.044922 l -0.076172 0.042969 l -0.078125 0.039063 l -0.076172 0.037109 l -0.080078 0.033203 l -0.00781 0.00195 a 0.5 0.5 0 0 0 -0.2929687 0.6445313 a 0.5 0.5 0 0 0 0.6445312 0.2929687 l 0.017578 -0.00781 l 0.017578 -0.00586 l 0.095703 -0.041016 l 0.017578 -0.00781 l 0.095703 -0.044922 l 0.017578 -0.00781 l 0.09375 -0.048828 l 0.017578 -0.00977 l 0.091797 -0.050781 l 0.017578 -0.00977 l 0.091797 -0.056641 l 0.015625 -0.011719 l 0.089844 -0.058594 l 0.015625 -0.011719 l 0.085937 -0.0625 l 0.015625 -0.011719 l 0.083984 -0.066406 l 0.015625 -0.013672 l 0.080078 -0.068359 l 0.015625 -0.013672 l 0.015625 -0.015625 a 0.5 0.5 0 0 0 0.027344 -0.7070312 a 0.5 0.5 0 0 0 -0.7050782 -0.027344 z" stroke-dasharray="1 2" stroke-linecap="round" stroke-linejoin="bevel" transform="matrix(-0.96592583 0.25881905 -0.25881905 -0.96592583 0 0)" inkscape:label="ripple" vector-effect="none"/>
    </g>
</svg>
