<?xml version="1.0" encoding="UTF-8"?>
<svg height="128px" viewBox="0 0 128 128" width="128px" xmlns="http://www.w3.org/2000/svg" xmlns:xlink="http://www.w3.org/1999/xlink">
    <filter id="a" height="100%" width="100%" x="0%" y="0%">
        <feColorMatrix color-interpolation-filters="sRGB" values="0 0 0 0 1 0 0 0 0 1 0 0 0 0 1 0 0 0 1 0"/>
    </filter>
    <linearGradient id="b" gradientUnits="userSpaceOnUse" x1="12" x2="116" y1="64" y2="64">
        <stop offset="0" stop-color="#c0bfbc"/>
        <stop offset="0.0363619" stop-color="#deddda"/>
        <stop offset="0.0562081" stop-color="#deddda"/>
        <stop offset="0.0988513" stop-color="#c0bfbc"/>
        <stop offset="0.901825" stop-color="#c0bfbc"/>
        <stop offset="0.938983" stop-color="#deddda"/>
        <stop offset="0.957658" stop-color="#deddda"/>
        <stop offset="1" stop-color="#c0bfbc"/>
    </linearGradient>
    <linearGradient id="c" gradientUnits="userSpaceOnUse" x1="27.230448" x2="100.769547" y1="25.230453" y2="98.769562">
        <stop offset="0" stop-color="#deddda"/>
        <stop offset="0.496368" stop-color="#f6f5f4"/>
        <stop offset="1" stop-color="#deddda"/>
    </linearGradient>
    <linearGradient id="d" gradientUnits="userSpaceOnUse" x1="20" x2="108" y1="62" y2="62">
        <stop offset="0" stop-color="#1a5fb4"/>
        <stop offset="0.0363619" stop-color="#3584e4"/>
        <stop offset="0.0562081" stop-color="#3584e4"/>
        <stop offset="0.0988513" stop-color="#1a5fb4"/>
        <stop offset="0.901825" stop-color="#1a5fb4"/>
        <stop offset="0.938983" stop-color="#3584e4"/>
        <stop offset="0.957658" stop-color="#3584e4"/>
        <stop offset="1" stop-color="#1a5fb4"/>
    </linearGradient>
    <clipPath id="e">
        <path d="m 20 20 h 88 v 72 h -88 z m 0 0"/>
    </clipPath>
    <clipPath id="f">
        <path d="m 28 20 h 72 c 4.417969 0 8 3.582031 8 8 v 56 c 0 4.417969 -3.582031 8 -8 8 h -72 c -4.417969 0 -8 -3.582031 -8 -8 v -56 c 0 -4.417969 3.582031 -8 8 -8 z m 0 0"/>
    </clipPath>
    <radialGradient id="g" cx="64" cy="56" gradientTransform="matrix(1 0 0 0.818182 0 10.181818)" gradientUnits="userSpaceOnUse" r="44">
        <stop offset="0" stop-color="#99c1f1"/>
        <stop offset="1" stop-color="#3584e4"/>
    </radialGradient>
    <linearGradient id="h" gradientUnits="userSpaceOnUse" x1="64" x2="64" y1="12" y2="100">
        <stop offset="0" stop-color="#62a0ea" stop-opacity="0.251665"/>
        <stop offset="1" stop-color="#62a0ea" stop-opacity="0.501466"/>
    </linearGradient>
    <linearGradient id="i" gradientUnits="userSpaceOnUse" x1="45.35545" x2="90.706207" y1="63.35833" y2="63.35833">
        <stop offset="0.0584958" stop-color="#ffffff"/>
        <stop offset="0.097493" stop-color="#deddda"/>
        <stop offset="0.4039" stop-color="#deddda"/>
        <stop offset="0.442897" stop-color="#ffffff"/>
        <stop offset="0.45961" stop-color="#ffffff"/>
        <stop offset="0.498607" stop-color="#deddda"/>
        <stop offset="0.883008" stop-color="#deddda"/>
        <stop offset="0.922006" stop-color="#ffffff"/>
    </linearGradient>
    <linearGradient id="j" gradientUnits="userSpaceOnUse" x1="45.355533" x2="90.706131" y1="63.358324" y2="63.358324">
        <stop offset="0.0584958" stop-color="#ffffff"/>
        <stop offset="0.103064" stop-color="#deddda"/>
        <stop offset="0.4039" stop-color="#deddda"/>
        <stop offset="0.437326" stop-color="#ffffff"/>
        <stop offset="0.45961" stop-color="#ffffff"/>
        <stop offset="0.498607" stop-color="#deddda"/>
        <stop offset="0.880223" stop-color="#deddda"/>
        <stop offset="0.922006" stop-color="#ffffff"/>
    </linearGradient>
    <clipPath id="k">
        <path d="m 20 20 h 88 v 72 h -88 z m 0 0"/>
    </clipPath>
    <clipPath id="l">
        <path d="m 28 20 h 72 c 4.417969 0 8 3.582031 8 8 v 56 c 0 4.417969 -3.582031 8 -8 8 h -72 c -4.417969 0 -8 -3.582031 -8 -8 v -56 c 0 -4.417969 3.582031 -8 8 -8 z m 0 0"/>
    </clipPath>
    <clipPath id="m">
        <rect height="128" width="128"/>
    </clipPath>
    <clipPath id="n">
        <rect height="128" width="128"/>
    </clipPath>
    <mask id="o">
        <g filter="url(#a)">
            <g clip-path="url(#n)" filter="url(#a)">
                <g clip-path="url(#m)">
                    <path d="m 20 12 h 88 c 4.417969 0 8 3.582031 8 8 v 88 c 0 4.417969 -3.582031 8 -8 8 h -88 c -4.417969 0 -8 -3.582031 -8 -8 v -88 c 0 -4.417969 3.582031 -8 8 -8 z m 0 0" fill="url(#b)"/>
                    <path d="m 20 12 h 88 c 4.417969 0 8 3.582031 8 8 v 84 c 0 4.417969 -3.582031 8 -8 8 h -88 c -4.417969 0 -8 -3.582031 -8 -8 v -84 c 0 -4.417969 3.582031 -8 8 -8 z m 0 0" fill="url(#c)"/>
                    <path d="m 28 20 h 72 c 4.417969 0 8 3.582031 8 8 v 68 c 0 4.417969 -3.582031 8 -8 8 h -72 c -4.417969 0 -8 -3.582031 -8 -8 v -68 c 0 -4.417969 3.582031 -8 8 -8 z m 0 0" fill="url(#d)"/>
                    <g clip-path="url(#k)">
                        <g clip-path="url(#l)">
                            <path d="m 28 20 h 72 c 4.417969 0 8 3.582031 8 8 v 56 c 0 4.417969 -3.582031 8 -8 8 h -72 c -4.417969 0 -8 -3.582031 -8 -8 v -56 c 0 -4.417969 3.582031 -8 8 -8 z m 0 0" fill="url(#g)" stroke="url(#h)" stroke-linejoin="round" stroke-width="8"/>
                        </g>
                    </g>
                    <path d="m 56.832031 77.621094 c -4.734375 -2.691406 -8.726562 -5.347656 -8.875 -5.902344 c -0.152343 -0.554688 0.0625 -1.484375 0.476563 -2.066406 c 0.636718 -0.898438 1.375 -0.917969 4.972656 -0.125 c 6.910156 1.519531 6.722656 2.21875 3.179688 -11.742188 c -2.734376 -10.789062 -2.976563 -12.230468 -2.203126 -13.070312 c 0.636719 -0.6875 1.207032 -0.839844 2.101563 -0.5625 c 1.050781 0.324218 1.613281 1.648437 3.921875 9.234375 c 2.234375 7.34375 2.847656 8.8125 3.59375 8.613281 c 0.636719 -0.171875 0.757812 -1.125 0.414062 -3.261719 c -0.316406 -1.957031 -0.183593 -3.347656 0.382813 -3.957031 c 1.484375 -1.59375 3.183594 -0.566406 4.414063 2.671875 c 0.769531 2.023437 1.351562 2.789063 1.988281 2.617187 c 0.636719 -0.171874 0.757812 -1.125 0.414062 -3.261718 c -0.90625 -5.597656 2.78125 -6.585938 4.800781 -1.285156 c 1.242188 3.273437 2.984376 3.632812 2.714844 0.5625 c -0.203125 -2.308594 1.105469 -3.851563 2.8125 -3.324219 c 1.074219 0.332031 1.574219 1.597656 3.972656 9.960937 c 2.738282 9.5625 2.738282 9.582032 1.671876 11.859375 l -1.066407 2.285157 l -10.539062 2.824218 l -10.539063 2.820313 z m 0 0" fill="none" stroke="url(#i)" stroke-width="4.969"/>
                    <path d="m 56.832031 77.621094 c -4.734375 -2.691406 -8.726562 -5.347656 -8.875 -5.902344 c -0.152343 -0.554688 0.0625 -1.484375 0.476563 -2.066406 c 0.636718 -0.898438 1.375 -0.917969 4.972656 -0.125 c 6.910156 1.519531 6.722656 2.21875 3.179688 -11.742188 c -2.734376 -10.789062 -2.976563 -12.230468 -2.203126 -13.070312 c 0.636719 -0.6875 1.207032 -0.839844 2.101563 -0.5625 c 1.050781 0.324218 1.613281 1.648437 3.921875 9.234375 c 2.234375 7.34375 2.847656 8.8125 3.59375 8.613281 c 0.636719 -0.171875 0.757812 -1.125 0.414062 -3.261719 c -0.316406 -1.957031 -0.183593 -3.347656 0.382813 -3.957031 c 1.484375 -1.59375 3.183594 -0.566406 4.414063 2.671875 c 0.769531 2.023437 1.351562 2.789063 1.988281 2.617187 c 0.636719 -0.171874 0.757812 -1.125 0.414062 -3.261718 c -0.90625 -5.597656 2.78125 -6.585938 4.800781 -1.285156 c 1.242188 3.273437 2.984376 3.632812 2.714844 0.5625 c -0.203125 -2.308594 1.105469 -3.851563 2.8125 -3.324219 c 1.074219 0.332031 1.574219 1.597656 3.972656 9.960937 c 2.738282 9.5625 2.738282 9.582032 1.671876 11.859375 l -1.066407 2.285157 l -10.539062 2.824218 l -10.539063 2.820313 z m 0 0" fill="url(#j)"/>
                    <path d="m 56.765625 74.222656 c -4.761719 -2.425781 -8.78125 -4.824218 -8.929687 -5.324218 c -0.152344 -0.5 0.066406 -1.339844 0.480468 -1.863282 c 0.640625 -0.8125 1.382813 -0.828125 5.003906 -0.113281 c 6.949219 1.371094 6.757813 2 3.199219 -10.597656 c -2.753906 -9.734375 -3 -11.039063 -2.21875 -11.796875 c 0.640625 -0.617188 1.214844 -0.757813 2.113281 -0.507813 c 1.058594 0.292969 1.621094 1.488281 3.945313 8.335938 c 2.246094 6.625 2.863281 7.953125 3.613281 7.773437 c 0.640625 -0.15625 0.761719 -1.015625 0.417969 -2.941406 c -0.320313 -1.769531 -0.183594 -3.023438 0.386719 -3.574219 c 1.492187 -1.4375 3.199218 -0.511719 4.441406 2.410157 c 0.773438 1.828124 1.355469 2.515624 1.996094 2.363281 c 0.640625 -0.152344 0.761718 -1.015625 0.414062 -2.941407 c -0.90625 -5.050781 2.800782 -5.945312 4.828125 -1.160156 c 1.253907 2.953125 3.003907 3.277344 2.734375 0.507813 c -0.203125 -2.085938 1.113282 -3.476563 2.832032 -3 c 1.074218 0.300781 1.582031 1.4375 3.992187 8.984375 c 2.753906 8.632812 2.757813 8.648437 1.683594 10.707031 l -1.074219 2.058594 l -10.601562 2.546875 l -10.601563 2.550781 z m 0 0" fill="none" stroke="#ffffff" stroke-width="4.73428"/>
                    <path d="m 56.765625 74.222656 c -4.761719 -2.425781 -8.78125 -4.824218 -8.929687 -5.324218 c -0.152344 -0.5 0.066406 -1.339844 0.480468 -1.863282 c 0.640625 -0.8125 1.382813 -0.828125 5.003906 -0.113281 c 6.949219 1.371094 6.757813 2 3.199219 -10.597656 c -2.753906 -9.734375 -3 -11.039063 -2.21875 -11.796875 c 0.640625 -0.617188 1.214844 -0.757813 2.113281 -0.507813 c 1.058594 0.292969 1.621094 1.488281 3.945313 8.335938 c 2.246094 6.625 2.863281 7.953125 3.613281 7.773437 c 0.640625 -0.15625 0.761719 -1.015625 0.417969 -2.941406 c -0.320313 -1.769531 -0.183594 -3.023438 0.386719 -3.574219 c 1.492187 -1.4375 3.199218 -0.511719 4.441406 2.410157 c 0.773438 1.828124 1.355469 2.515624 1.996094 2.363281 c 0.640625 -0.152344 0.761718 -1.015625 0.414062 -2.941407 c -0.90625 -5.050781 2.800782 -5.945312 4.828125 -1.160156 c 1.253907 2.953125 3.003907 3.277344 2.734375 0.507813 c -0.203125 -2.085938 1.113282 -3.476563 2.832032 -3 c 1.074218 0.300781 1.582031 1.4375 3.992187 8.984375 c 2.753906 8.632812 2.757813 8.648437 1.683594 10.707031 l -1.074219 2.058594 l -10.601562 2.546875 l -10.601563 2.550781 z m 0 0"/>
                    <path d="m -0.86131 -69.969233 c 0.003148 6.124107 -3.544039 11.692355 -9.096498 14.278459 c -5.549298 2.588399 -12.092946 1.726775 -16.785777 -2.20808 c -4.690536 -3.938015 -6.678581 -10.234094 -5.090838 -16.148943" fill="none" stroke="#ffffff" stroke-dasharray="4 12" stroke-linecap="round" stroke-linejoin="bevel" stroke-width="4" transform="matrix(-0.809093 0.58768 -0.58768 -0.809093 0 0)"/>
                </g>
            </g>
        </g>
    </mask>
    <mask id="p">
        <g filter="url(#a)">
            <rect fill-opacity="0.8" height="184.32" width="184.32" x="-28.16" y="-28.16"/>
        </g>
    </mask>
    <linearGradient id="q" gradientTransform="matrix(0 0.37 -0.98462 0 295.38501 -30.360001)" gradientUnits="userSpaceOnUse" x1="300" x2="428" y1="235" y2="235">
        <stop offset="0" stop-color="#f9f06b"/>
        <stop offset="1" stop-color="#f5c211"/>
    </linearGradient>
    <clipPath id="r">
        <rect height="128" width="128"/>
    </clipPath>
    <clipPath id="s">
        <rect height="128" width="128"/>
    </clipPath>
    <path d="m 20 12 h 88 c 4.417969 0 8 3.582031 8 8 v 88 c 0 4.417969 -3.582031 8 -8 8 h -88 c -4.417969 0 -8 -3.582031 -8 -8 v -88 c 0 -4.417969 3.582031 -8 8 -8 z m 0 0" fill="url(#b)"/>
    <path d="m 20 12 h 88 c 4.417969 0 8 3.582031 8 8 v 84 c 0 4.417969 -3.582031 8 -8 8 h -88 c -4.417969 0 -8 -3.582031 -8 -8 v -84 c 0 -4.417969 3.582031 -8 8 -8 z m 0 0" fill="url(#c)"/>
    <path d="m 28 20 h 72 c 4.417969 0 8 3.582031 8 8 v 68 c 0 4.417969 -3.582031 8 -8 8 h -72 c -4.417969 0 -8 -3.582031 -8 -8 v -68 c 0 -4.417969 3.582031 -8 8 -8 z m 0 0" fill="url(#d)"/>
    <g clip-path="url(#e)">
        <g clip-path="url(#f)">
            <path d="m 28 20 h 72 c 4.417969 0 8 3.582031 8 8 v 56 c 0 4.417969 -3.582031 8 -8 8 h -72 c -4.417969 0 -8 -3.582031 -8 -8 v -56 c 0 -4.417969 3.582031 -8 8 -8 z m 0 0" fill="url(#g)" stroke="url(#h)" stroke-linejoin="round" stroke-width="8"/>
        </g>
    </g>
    <path d="m 56.832031 77.621094 c -4.734375 -2.691406 -8.726562 -5.347656 -8.875 -5.902344 c -0.152343 -0.554688 0.0625 -1.484375 0.476563 -2.066406 c 0.636718 -0.898438 1.375 -0.917969 4.972656 -0.125 c 6.910156 1.519531 6.722656 2.21875 3.179688 -11.742188 c -2.734376 -10.789062 -2.976563 -12.230468 -2.203126 -13.070312 c 0.636719 -0.6875 1.207032 -0.839844 2.101563 -0.5625 c 1.050781 0.324218 1.613281 1.648437 3.921875 9.234375 c 2.234375 7.34375 2.847656 8.8125 3.59375 8.613281 c 0.636719 -0.171875 0.757812 -1.125 0.414062 -3.261719 c -0.316406 -1.957031 -0.183593 -3.347656 0.382813 -3.957031 c 1.484375 -1.59375 3.183594 -0.566406 4.414063 2.671875 c 0.769531 2.023437 1.351562 2.789063 1.988281 2.617187 c 0.636719 -0.171874 0.757812 -1.125 0.414062 -3.261718 c -0.90625 -5.597656 2.78125 -6.585938 4.800781 -1.285156 c 1.242188 3.273437 2.984376 3.632812 2.714844 0.5625 c -0.203125 -2.308594 1.105469 -3.851563 2.8125 -3.324219 c 1.074219 0.332031 1.574219 1.597656 3.972656 9.960937 c 2.738282 9.5625 2.738282 9.582032 1.671876 11.859375 l -1.066407 2.285157 l -10.539062 2.824218 l -10.539063 2.820313 z m 0 0" fill="none" stroke="url(#i)" stroke-width="4.969"/>
    <path d="m 56.832031 77.621094 c -4.734375 -2.691406 -8.726562 -5.347656 -8.875 -5.902344 c -0.152343 -0.554688 0.0625 -1.484375 0.476563 -2.066406 c 0.636718 -0.898438 1.375 -0.917969 4.972656 -0.125 c 6.910156 1.519531 6.722656 2.21875 3.179688 -11.742188 c -2.734376 -10.789062 -2.976563 -12.230468 -2.203126 -13.070312 c 0.636719 -0.6875 1.207032 -0.839844 2.101563 -0.5625 c 1.050781 0.324218 1.613281 1.648437 3.921875 9.234375 c 2.234375 7.34375 2.847656 8.8125 3.59375 8.613281 c 0.636719 -0.171875 0.757812 -1.125 0.414062 -3.261719 c -0.316406 -1.957031 -0.183593 -3.347656 0.382813 -3.957031 c 1.484375 -1.59375 3.183594 -0.566406 4.414063 2.671875 c 0.769531 2.023437 1.351562 2.789063 1.988281 2.617187 c 0.636719 -0.171874 0.757812 -1.125 0.414062 -3.261718 c -0.90625 -5.597656 2.78125 -6.585938 4.800781 -1.285156 c 1.242188 3.273437 2.984376 3.632812 2.714844 0.5625 c -0.203125 -2.308594 1.105469 -3.851563 2.8125 -3.324219 c 1.074219 0.332031 1.574219 1.597656 3.972656 9.960937 c 2.738282 9.5625 2.738282 9.582032 1.671876 11.859375 l -1.066407 2.285157 l -10.539062 2.824218 l -10.539063 2.820313 z m 0 0" fill="url(#j)"/>
    <path d="m 56.765625 74.222656 c -4.761719 -2.425781 -8.78125 -4.824218 -8.929687 -5.324218 c -0.152344 -0.5 0.066406 -1.339844 0.480468 -1.863282 c 0.640625 -0.8125 1.382813 -0.828125 5.003906 -0.113281 c 6.949219 1.371094 6.757813 2 3.199219 -10.597656 c -2.753906 -9.734375 -3 -11.039063 -2.21875 -11.796875 c 0.640625 -0.617188 1.214844 -0.757813 2.113281 -0.507813 c 1.058594 0.292969 1.621094 1.488281 3.945313 8.335938 c 2.246094 6.625 2.863281 7.953125 3.613281 7.773437 c 0.640625 -0.15625 0.761719 -1.015625 0.417969 -2.941406 c -0.320313 -1.769531 -0.183594 -3.023438 0.386719 -3.574219 c 1.492187 -1.4375 3.199218 -0.511719 4.441406 2.410157 c 0.773438 1.828124 1.355469 2.515624 1.996094 2.363281 c 0.640625 -0.152344 0.761718 -1.015625 0.414062 -2.941407 c -0.90625 -5.050781 2.800782 -5.945312 4.828125 -1.160156 c 1.253907 2.953125 3.003907 3.277344 2.734375 0.507813 c -0.203125 -2.085938 1.113282 -3.476563 2.832032 -3 c 1.074218 0.300781 1.582031 1.4375 3.992187 8.984375 c 2.753906 8.632812 2.757813 8.648437 1.683594 10.707031 l -1.074219 2.058594 l -10.601562 2.546875 l -10.601563 2.550781 z m 0 0" fill="none" stroke="#ffffff" stroke-width="4.73428"/>
    <path d="m 56.765625 74.222656 c -4.761719 -2.425781 -8.78125 -4.824218 -8.929687 -5.324218 c -0.152344 -0.5 0.066406 -1.339844 0.480468 -1.863282 c 0.640625 -0.8125 1.382813 -0.828125 5.003906 -0.113281 c 6.949219 1.371094 6.757813 2 3.199219 -10.597656 c -2.753906 -9.734375 -3 -11.039063 -2.21875 -11.796875 c 0.640625 -0.617188 1.214844 -0.757813 2.113281 -0.507813 c 1.058594 0.292969 1.621094 1.488281 3.945313 8.335938 c 2.246094 6.625 2.863281 7.953125 3.613281 7.773437 c 0.640625 -0.15625 0.761719 -1.015625 0.417969 -2.941406 c -0.320313 -1.769531 -0.183594 -3.023438 0.386719 -3.574219 c 1.492187 -1.4375 3.199218 -0.511719 4.441406 2.410157 c 0.773438 1.828124 1.355469 2.515624 1.996094 2.363281 c 0.640625 -0.152344 0.761718 -1.015625 0.414062 -2.941407 c -0.90625 -5.050781 2.800782 -5.945312 4.828125 -1.160156 c 1.253907 2.953125 3.003907 3.277344 2.734375 0.507813 c -0.203125 -2.085938 1.113282 -3.476563 2.832032 -3 c 1.074218 0.300781 1.582031 1.4375 3.992187 8.984375 c 2.753906 8.632812 2.757813 8.648437 1.683594 10.707031 l -1.074219 2.058594 l -10.601562 2.546875 l -10.601563 2.550781 z m 0 0"/>
    <path d="m -0.86131 -69.969233 c 0.003148 6.124107 -3.544039 11.692355 -9.096498 14.278459 c -5.549298 2.588399 -12.092946 1.726775 -16.785777 -2.20808 c -4.690536 -3.938015 -6.678581 -10.234094 -5.090838 -16.148943" fill="none" stroke="#ffffff" stroke-dasharray="4 12" stroke-linecap="round" stroke-linejoin="bevel" stroke-width="4" transform="matrix(-0.809093 0.58768 -0.58768 -0.809093 0 0)"/>
    <g mask="url(#o)">
        <g clip-path="url(#s)">
            <g mask="url(#p)">
                <g clip-path="url(#r)">
                    <path d="m 128 80.640625 v 47.359375 h -128 v -47.359375 z m 0 0" fill="url(#q)"/>
                    <path d="m 13.308594 80.640625 l 47.355468 47.359375 h 21.214844 l -47.359375 -47.359375 z m 42.421875 0 l 47.363281 47.359375 h 21.214844 l -47.363282 -47.359375 z m 42.429687 0 l 29.839844 29.839844 v -21.210938 l -8.628906 -8.628906 z m -98.160156 7.90625 v 21.214844 l 18.238281 18.238281 h 21.214844 z m 0 0"/>
                </g>
            </g>
        </g>
    </g>
</svg>
